# xmcd
#
# Track frame offsets:
#	300
#	19713
#	38740
#	58563
#	77733
#	98443
#	118626
#	135902
#	150305
#	164273
#	184544
#	208641
#	223564
#	239646
#	255129
#
# Disc length: 3626 seconds
#
# Revision: 1
# Processed by: cddbd v1.5.2PL0 Copyright (c) Steve Scherf et al.
# Submitted via: audiograbber 1.83.01
#
DISCID=b20e260f
DTITLE=Various Artist - sc8923
DYEAR=1900
DGENRE=country
TTITLE0=trace adkins - honky tonk badonkadonk
TTITLE1=sara evans - a real fine flace to start
TTITLE2=keith urban - making memories of us
TTITLE3=reba mcentire - my sister
TTITLE4=big and rich - live this life
TTITLE5=miranda lambert - bring me down
TTITLE6=sugarland - something more
TTITLE7=alan jackson - the talkin' song repair blues
TTITLE8=unknown - restless
TTITLE9=george strait - you'll be there
TTITLE10=old town new - old town new
TTITLE11=miranda lambert - kerosene
TTITLE12=cledus t. judd - paycheck woman
TTITLE13=brian mccomas - middle of nowhere
TTITLE14=lee ann womack - he oughtta know that by now
EXTD=
EXTT0=
EXTT1=
EXTT2=
EXTT3=
EXTT4=
EXTT5=
EXTT6=
EXTT7=
EXTT8=
EXTT9=
EXTT10=
EXTT11=
EXTT12=
EXTT13=
EXTT14=
PLAYORDER=
